<?xml version="1.0" standalone="no"?>
<!DOCTYPE svg PUBLIC "-//W3C//DTD SVG 20010904//EN"
 "http://www.w3.org/TR/2001/REC-SVG-20010904/DTD/svg10.dtd">
<svg version="1.0" xmlns="http://www.w3.org/2000/svg"
 width="260.000000pt" height="260.000000pt" viewBox="0 0 260.000000 260.000000"
 preserveAspectRatio="xMidYMid meet">
<metadata>
Created by potrace 1.11, written by Peter Selinger 2001-2013
</metadata>
<g transform="translate(0.000000,260.000000) scale(0.100000,-0.100000)"
fill="#000000" stroke="none">
<path d="M1165 2488 c-27 -4 -88 -19 -135 -34 -47 -14 -96 -26 -110 -25 -27 2
-38 -2 -114 -39 -65 -32 -44 -37 25 -7 33 15 62 22 74 18 25 -9 35 -8 60 6 42
23 180 54 263 59 98 6 116 10 107 23 -6 11 -93 10 -170 -1z"/>
<path d="M1320 2439 c-19 -4 -76 -10 -126 -12 -49 -2 -99 -9 -110 -14 -10 -6
-44 -16 -74 -23 -62 -15 -140 -60 -103 -60 12 0 28 7 36 15 8 8 34 16 58 18
24 3 51 7 59 11 59 23 98 32 115 27 11 -4 29 -6 40 -5 42 5 101 16 115 23 8 4
24 6 35 5 11 -1 48 -6 81 -9 38 -5 64 -4 67 2 12 19 -140 36 -193 22z"/>
<path d="M881 2376 c-8 -10 -9 -16 -1 -21 5 -3 13 1 16 10 9 22 -1 29 -15 11z"/>
<path d="M1336 2383 c-5 -5 -59 -11 -154 -18 -127 -8 -207 -32 -350 -103 -85
-43 -282 -193 -282 -215 0 -6 -7 -19 -17 -29 -9 -10 -14 -21 -11 -23 3 -3 30
17 59 46 30 28 73 64 97 80 23 17 42 34 42 40 0 5 10 13 23 18 12 5 39 21 60
35 21 15 44 28 50 29 7 1 26 11 42 23 37 25 119 53 182 60 27 3 62 8 78 10 17
3 55 7 85 8 31 1 61 6 68 10 6 4 56 2 109 -3 54 -6 125 -13 157 -16 32 -3 63
-8 69 -12 6 -3 7 -2 4 4 -9 14 -108 40 -182 48 -106 12 -124 13 -129 8z"/>
<path d="M789 2322 c-62 -37 -78 -49 -157 -119 -20 -18 -40 -33 -44 -33 -5 0
-8 -7 -8 -15 0 -21 5 -19 59 23 26 20 58 44 71 52 12 8 28 20 34 26 7 6 22 15
34 18 12 4 22 11 22 16 0 4 10 10 23 13 12 4 30 12 40 20 16 11 17 15 5 25
-11 9 -28 3 -79 -26z"/>
<path d="M1165 2308 c-169 -27 -224 -48 -350 -132 -61 -40 -81 -56 -191 -145
-61 -49 -124 -133 -124 -165 0 -24 23 -15 30 11 6 26 124 150 171 181 19 12
61 43 94 67 98 74 127 91 203 119 40 14 72 24 72 21 0 -2 10 -1 23 4 59 23
259 31 294 13 10 -5 52 -13 94 -16 93 -8 118 -12 192 -33 32 -9 60 -13 63 -10
10 9 -43 38 -88 49 -24 5 -52 12 -63 14 -11 3 -47 7 -80 10 -33 3 -83 9 -111
15 -56 11 -152 10 -229 -3z"/>
<path d="M1350 2261 c0 -5 -35 -7 -80 -4 -119 9 -281 -29 -336 -79 -11 -10
-25 -18 -31 -18 -11 0 -129 -90 -234 -178 -76 -64 -163 -174 -166 -209 l-2
-28 20 25 c28 35 123 141 173 194 23 25 66 61 96 82 30 21 60 43 65 50 6 7 60
39 120 71 l110 58 155 0 c85 0 156 -4 158 -8 1 -5 -59 -10 -134 -12 -189 -6
-188 -6 -438 -175 -29 -19 -83 -70 -218 -202 -60 -60 -114 -108 -119 -108 -5
0 -9 -6 -9 -14 0 -22 36 -8 49 20 6 13 14 24 18 23 20 -3 33 2 30 12 -1 6 5
14 13 17 11 4 11 0 -3 -19 -16 -22 -42 -73 -84 -167 -20 -45 -11 -50 23 -13
40 46 54 23 16 -26 -32 -40 -52 -93 -34 -93 11 0 48 51 44 63 -1 4 10 18 24
30 18 16 28 36 31 62 2 24 16 55 33 77 17 20 30 41 30 45 0 13 137 153 150
153 15 0 8 42 -7 48 -7 2 -13 -2 -13 -10 0 -7 -27 -36 -59 -63 -33 -28 -60
-54 -60 -59 -1 -14 -114 -176 -123 -176 -4 0 -8 3 -8 6 0 10 35 69 43 72 12 6
37 59 37 79 0 19 61 87 121 135 54 43 134 110 139 118 3 4 25 19 50 33 157 90
168 95 231 102 103 11 379 9 434 -3 139 -31 177 -41 191 -53 8 -6 18 -9 22 -5
26 27 -181 95 -338 112 -39 4 -81 18 -91 30 -13 16 -39 19 -39 5z"/>
<path d="M1228 2155 c-2 -3 -22 -7 -44 -10 -73 -11 -103 -27 -224 -120 -25
-19 -62 -44 -82 -55 -37 -20 -46 -34 -30 -44 9 -5 111 59 163 103 20 17 41 31
46 31 5 0 19 11 31 25 14 16 32 25 50 25 15 -1 47 3 72 9 46 10 298 7 380 -4
53 -8 97 -22 200 -64 78 -32 115 -28 57 6 -37 22 -62 31 -177 64 -41 12 -86
24 -100 29 -26 7 -335 12 -342 5z"/>
<path d="M1425 2110 c-19 -8 -19 -9 3 -9 12 -1 22 4 22 9 0 6 -1 10 -2 9 -2 0
-12 -4 -23 -9z"/>
<path d="M1191 2083 c-76 -15 -108 -29 -147 -61 -18 -15 -56 -44 -83 -65 -28
-21 -49 -43 -46 -47 7 -11 35 -2 35 11 0 5 5 9 12 9 6 0 32 17 57 38 94 78
189 100 401 96 85 -2 162 -5 170 -7 68 -14 236 -77 292 -109 70 -40 100 -44
59 -9 -57 50 -275 135 -369 145 -101 11 -328 11 -381 -1z"/>
<path d="M930 2041 c-17 -14 -20 -20 -10 -21 22 0 43 16 38 30 -2 8 -11 5 -28
-9z"/>
<path d="M1470 2041 c0 -5 21 -14 48 -21 26 -6 61 -18 77 -25 17 -7 51 -16 78
-20 57 -8 177 -61 244 -108 27 -19 59 -38 72 -42 20 -6 22 -5 12 14 -6 11 -39
34 -74 51 -34 17 -79 42 -100 54 -36 22 -76 36 -239 86 -71 21 -118 26 -118
11z"/>
<path d="M1255 2029 c-22 -4 -53 -10 -70 -13 -45 -8 -146 -62 -201 -108 -178
-145 -264 -243 -334 -379 -23 -46 -46 -86 -50 -89 -4 -3 -19 -27 -35 -55 -15
-27 -35 -55 -43 -62 -14 -12 -8 -38 8 -28 21 13 119 170 175 280 23 46 127
159 269 293 99 94 262 151 391 138 68 -7 223 -54 275 -83 50 -28 149 -97 190
-132 65 -56 6 -33 -86 33 -99 71 -225 128 -324 146 -59 11 -87 10 -215 -6 -89
-11 -247 -126 -342 -250 -18 -24 -41 -45 -51 -48 -22 -7 -76 -91 -185 -287
-87 -158 -102 -195 -87 -220 12 -19 20 -8 31 41 5 23 21 57 34 74 14 18 25 36
25 41 0 13 42 76 48 71 2 -3 -9 -40 -26 -83 -55 -137 -91 -247 -85 -257 8 -12
33 23 33 45 0 9 22 63 49 120 62 129 66 101 12 -63 -22 -64 -42 -132 -46 -150
-4 -18 -14 -43 -22 -55 -13 -20 -13 -23 -1 -23 32 0 65 74 83 185 4 22 10 45
15 50 4 6 17 40 29 78 13 37 26 67 31 67 8 0 -23 -161 -35 -179 -2 -5 -7 -26
-10 -47 -8 -52 -18 -87 -48 -165 -24 -61 -25 -79 -7 -79 11 0 68 121 74 155 3
17 10 59 16 95 15 102 55 225 74 228 20 4 21 -12 2 -41 -14 -21 -40 -116 -50
-182 -18 -114 -37 -197 -57 -240 -12 -27 -23 -55 -24 -61 -2 -6 -6 -21 -10
-33 -10 -33 10 -25 38 17 14 20 30 63 36 95 6 32 13 63 17 68 7 12 17 70 23
137 0 6 6 12 12 12 30 0 -21 -281 -64 -354 -18 -31 -25 -52 -19 -58 7 -7 16 0
28 18 9 16 25 41 35 56 11 15 19 41 19 58 0 39 16 39 25 0 4 -20 2 -37 -6 -46
-7 -9 -14 -23 -15 -31 -2 -8 -10 -23 -18 -32 -9 -10 -16 -23 -16 -29 0 -6 -7
-18 -16 -27 -9 -9 -14 -19 -10 -22 8 -8 66 47 66 62 0 7 9 20 20 30 19 18 20
17 20 -7 0 -16 -13 -38 -35 -59 -33 -32 -45 -59 -27 -59 15 0 81 69 99 103 16
31 17 31 22 9 l6 -24 26 21 c17 13 40 20 65 20 55 -1 359 -76 407 -101 31 -15
50 -18 81 -13 41 7 99 14 147 19 99 8 331 201 442 366 28 41 63 86 79 99 15
13 28 28 28 33 0 23 -32 -3 -89 -72 -34 -41 -117 -132 -183 -203 -103 -110
-130 -132 -192 -162 -77 -36 -165 -52 -199 -33 -11 6 -54 12 -96 13 -54 2
-112 13 -201 41 -71 22 -144 38 -170 38 l-45 -1 42 13 c38 11 50 10 135 -17
122 -39 171 -50 243 -54 33 -2 91 -7 128 -11 113 -11 202 36 334 176 24 25 43
48 43 52 0 4 21 29 48 56 85 88 156 171 164 192 4 11 12 20 18 20 20 0 9 21
-40 76 -52 56 -61 73 -86 154 -12 41 -12 43 2 25 9 -11 24 -38 34 -61 16 -37
79 -108 88 -99 6 6 -20 49 -44 74 -25 25 -32 51 -14 51 6 0 13 -7 16 -15 4 -8
10 -12 15 -9 13 8 -12 42 -36 48 -11 3 -40 33 -65 66 -55 75 -71 92 -78 86 -2
-3 3 -17 12 -30 18 -29 21 -46 5 -46 -5 0 -17 17 -25 38 -13 31 -25 60 -42 95
-2 4 2 7 10 7 12 0 35 -20 134 -120 41 -41 44 -43 44 -20 0 17 -20 44 -65 87
-43 41 -65 70 -65 85 0 20 6 17 46 -25 26 -27 53 -47 62 -45 14 3 14 6 -4 23
-11 11 -33 38 -49 60 -16 22 -42 51 -57 63 -40 34 -38 60 2 32 19 -13 38 -19
48 -15 15 6 15 7 -3 18 -11 6 -26 17 -33 24 -7 7 -17 13 -22 13 -5 0 -15 6
-22 13 -62 58 -187 123 -253 130 -22 2 -60 13 -85 24 -126 55 -258 79 -345 62z
m245 -110 c58 -17 112 -36 120 -44 8 -7 31 -20 50 -29 40 -17 127 -92 118
-101 -3 -4 -32 13 -65 37 -126 95 -244 133 -408 132 -149 -1 -194 -22 -325
-153 -83 -83 -101 -109 -142 -193 -31 -65 -53 -98 -63 -98 -14 0 -14 4 4 34
12 18 21 40 21 49 0 9 6 22 13 29 8 7 19 30 26 50 7 21 26 51 42 69 16 17 29
35 29 40 0 4 8 12 17 17 9 6 40 31 67 56 101 91 140 114 203 122 32 3 59 7 61
9 1 1 31 3 65 3 41 0 97 -9 167 -29z m293 -44 c42 -21 92 -51 110 -66 29 -26
30 -28 10 -29 -12 0 -24 4 -27 9 -4 5 -41 30 -84 54 -143 83 -148 102 -9 32z
m-543 11 c0 -3 -28 -18 -63 -35 -34 -16 -81 -43 -104 -60 -47 -34 -154 -173
-198 -257 -32 -61 -45 -66 -20 -8 9 22 23 59 31 84 8 29 25 54 44 68 17 13 42
40 56 62 23 34 149 127 194 143 19 7 60 8 60 3z m265 -24 c71 -29 175 -83 175
-92 0 -4 12 -13 28 -20 15 -7 22 -15 15 -17 -7 -2 -32 9 -55 25 -145 98 -291
129 -407 88 -70 -25 -177 -101 -215 -153 -20 -27 -46 -61 -59 -76 -12 -16 -30
-43 -39 -60 -10 -17 -25 -38 -34 -46 -15 -15 -16 -14 -9 9 10 33 52 105 70
120 8 7 15 18 15 25 0 17 80 97 135 135 24 17 75 44 112 60 60 26 77 29 143
26 44 -2 96 -12 125 -24z m-33 -46 c56 -17 102 -45 129 -80 30 -39 14 -47 -19
-9 -39 46 -113 76 -202 81 -72 4 -78 2 -157 -37 -89 -45 -133 -93 -168 -184
-20 -54 -35 -69 -34 -35 1 36 21 82 56 132 35 49 144 127 204 145 40 12 129 6
191 -13z m23 -71 c46 -26 85 -65 66 -65 -7 0 -33 14 -57 32 -38 27 -54 32
-121 36 -71 3 -83 1 -130 -25 -65 -35 -143 -108 -143 -133 0 -29 -11 -50 -25
-50 -25 0 14 92 59 138 100 106 239 132 351 67z m162 -10 c36 -32 17 -32 -22
0 -16 13 -25 24 -18 25 7 0 25 -11 40 -25z m-189 -40 c28 -13 52 -29 52 -35 0
-15 -15 -12 -54 11 -52 31 -138 28 -199 -6 -50 -28 -97 -81 -97 -108 0 -10 -7
-17 -16 -17 -30 0 10 79 63 124 73 61 162 73 251 31z m-20 -54 c36 -19 25 -31
-15 -17 -47 16 -87 11 -133 -16 -52 -32 -70 -49 -70 -70 0 -19 -15 -24 -25 -8
-18 28 68 112 133 129 30 8 75 1 110 -18z m-668 -75 c-42 -83 -77 -132 -87
-122 -3 3 2 16 10 30 19 29 54 88 77 131 25 48 32 57 38 51 3 -3 -14 -44 -38
-90z m565 7 c3 -21 15 -53 26 -72 18 -31 34 -91 24 -91 -11 0 -73 109 -75 130
-6 74 13 98 25 33z m70 24 c11 -9 15 -19 10 -26 -5 -9 -11 -9 -17 -3 -6 6 -17
8 -24 5 -14 -5 -20 18 -7 30 9 10 17 9 38 -6z m507 -87 c27 -65 -3 -48 -37 22
-40 81 -41 89 -8 51 15 -18 36 -50 45 -73z m-927 41 c-4 -17 -13 -31 -21 -31
-18 0 -18 4 2 41 19 37 28 32 19 -10z m859 -17 c24 -36 35 -62 31 -72 -6 -15
-8 -15 -13 -2 -3 8 -20 37 -39 64 -18 26 -33 52 -33 57 0 22 20 5 54 -47z
m-66 -12 c14 -70 15 -92 3 -92 -5 0 -15 26 -21 58 -6 31 -14 65 -16 75 -3 10
0 17 8 17 9 0 18 -21 26 -58z m-44 -31 c14 -56 15 -84 2 -70 -9 10 -43 138
-38 144 10 10 20 -9 36 -74z m-420 -53 c14 -25 39 -60 56 -76 35 -35 42 -66 8
-36 -76 66 -126 162 -112 213 7 24 8 23 15 -15 4 -22 19 -61 33 -86z m80 104
c2 -4 1 -13 -3 -20 -4 -8 -11 -5 -19 8 -10 16 -10 20 2 20 8 0 17 -4 20 -8z
m283 -40 c4 -20 6 -41 4 -47 -2 -5 -5 -19 -7 -29 -9 -50 -19 -28 -20 44 -1 82
10 97 23 32z m-61 -27 c6 -39 -11 -89 -28 -79 -4 3 -3 14 2 24 6 11 8 31 4 45
-6 24 2 63 11 53 2 -2 7 -21 11 -43z m214 -23 c0 -23 -17 -4 -23 25 -5 26 -4
26 9 8 8 -10 14 -25 14 -33z m-774 -139 c11 -77 11 -76 -3 -80 -11 -4 -16 12
-28 95 -5 33 -4 42 8 42 10 0 17 -17 23 -57z m-69 11 c1 -16 5 -48 8 -71 4
-34 1 -43 -10 -43 -17 0 -17 0 -20 88 -2 41 1 62 8 59 6 -2 12 -16 14 -33z
m374 -16 c67 -71 62 -85 -6 -18 -51 50 -65 70 -49 70 3 0 28 -23 55 -52z
m-436 -38 c1 -44 -3 -80 -7 -80 -4 0 -8 3 -9 8 0 4 -2 16 -4 27 -14 77 -14 99
-4 111 20 25 24 15 24 -66z m-80 8 c-14 -29 -25 -68 -25 -85 0 -24 -5 -33 -16
-33 -10 0 -14 6 -11 14 8 19 30 98 32 111 3 23 18 45 31 45 10 0 7 -14 -11
-52z m1223 -19 c28 -39 52 -81 52 -93 0 -13 -15 -36 -35 -55 -19 -17 -35 -36
-35 -41 0 -6 -4 -10 -10 -10 -6 0 -6 10 1 27 5 15 9 53 8 86 -2 46 -9 68 -30
100 -32 47 -35 57 -16 57 6 -1 36 -32 65 -71z m-675 -33 c48 -36 51 -64 5 -36
-46 27 -106 91 -105 114 0 15 6 12 31 -16 17 -18 48 -46 69 -62z m585 24 c10
-53 9 -66 -3 -153 -11 -72 -68 -180 -123 -233 -177 -171 -228 -190 -440 -160
-129 18 -298 69 -247 74 17 2 63 -10 105 -27 48 -20 78 -27 84 -21 6 6 -12 19
-52 37 -55 23 -79 43 -53 43 13 0 101 -47 121 -64 21 -19 160 -40 218 -33 66
8 132 35 126 52 -5 11 -15 10 -52 -6 -88 -38 -271 -16 -317 37 -11 13 -26 24
-34 24 -7 0 -11 6 -8 13 2 6 11 10 18 8 56 -16 246 -38 301 -35 60 4 109 39
168 120 30 40 58 74 61 74 3 0 18 24 32 53 32 65 43 138 27 196 -7 27 -8 47
-2 53 11 11 23 -41 28 -110 2 -48 7 -57 23 -47 15 9 13 61 -3 117 -8 25 -12
49 -8 52 10 11 19 -8 30 -64z m-123 -7 c-22 -159 -96 -292 -189 -340 -29 -15
-109 -25 -101 -13 2 4 28 12 58 19 41 9 63 21 96 55 52 53 97 147 107 223 3
32 7 63 8 68 2 13 16 35 22 35 3 0 2 -21 -1 -47z m-64 -46 c-17 -50 -59 -115
-106 -166 -2 -1 -9 0 -15 4 -7 4 2 19 25 42 36 35 85 120 85 148 0 9 5 26 12
38 21 40 20 -1 -1 -66z m105 -17 c-9 -80 -20 -113 -49 -142 -7 -7 -29 -36 -48
-64 -41 -62 -82 -97 -137 -119 -59 -24 -160 -23 -255 2 -46 13 -55 18 -46 29
8 9 16 11 29 4 64 -34 240 -42 286 -13 66 41 96 70 113 108 10 22 26 48 36 58
21 22 55 150 51 192 -2 17 -1 34 2 40 10 17 23 -49 18 -95z m-1026 40 c0 -22
-4 -40 -10 -40 -5 0 -8 10 -6 23 3 12 5 30 5 40 2 35 11 16 11 -23z m851 -44
c-32 -66 -71 -112 -71 -84 0 8 11 25 25 38 13 12 30 39 36 59 18 54 32 78 37
63 2 -7 -10 -41 -27 -76z m-376 20 c35 -30 72 -59 83 -65 11 -6 22 -19 25 -30
6 -23 -147 90 -171 127 -23 35 -7 26 63 -32z m681 29 c17 -66 -27 -245 -60
-245 -9 0 -8 4 22 90 12 35 18 77 17 118 -2 63 9 83 21 37z m-356 -27 c-11
-37 -40 -61 -40 -32 0 8 7 17 15 20 8 4 15 14 15 23 0 17 10 34 16 28 2 -2 -1
-19 -6 -39z m-198 -173 c10 -13 3 -18 -19 -11 -23 7 -83 61 -83 75 0 11 89
-45 102 -64z m-315 33 c22 -24 39 -68 27 -68 -9 0 -30 27 -49 63 -19 33 -6 35
22 5z m-77 -2 c0 -7 18 -33 40 -58 35 -41 41 -58 19 -58 -9 0 -89 109 -89 122
0 4 7 8 15 8 8 0 15 -6 15 -14z m680 5 c0 -11 -73 -82 -78 -76 -4 4 68 85 75
85 1 0 3 -4 3 -9z m-682 -116 c20 -23 20 -25 3 -25 -24 0 -45 25 -70 82 -26
61 -14 70 19 13 14 -24 36 -56 48 -70z m-108 68 c6 -16 19 -45 30 -66 24 -47
24 -47 4 -47 -8 0 -23 19 -34 43 -27 60 -34 97 -21 97 6 0 16 -12 21 -27z
m-42 -40 c11 -32 23 -66 27 -75 4 -11 3 -18 -4 -18 -7 0 -18 15 -25 33 -15 35
-31 117 -23 117 3 0 14 -26 25 -57z m-49 -26 c1 -21 5 -47 11 -57 8 -15 5 -20
-19 -28 l-29 -10 13 31 c7 18 11 56 9 87 -3 39 -1 49 5 35 5 -11 10 -37 10
-58z m-48 11 c2 -71 -2 -103 -15 -110 -21 -14 -25 -8 -16 22 5 17 7 41 4 53
-5 28 5 77 17 77 5 0 9 -19 10 -42z m657 4 c2 -7 -3 -12 -12 -12 -19 0 -86 31
-86 40 0 11 94 -16 98 -28z m-20 -42 c23 -6 42 -15 42 -21 0 -6 -8 -8 -17 -5
-10 3 -36 8 -58 12 -22 4 -43 9 -48 11 -13 8 4 24 21 19 10 -3 36 -10 60 -16z
m11 -295 c4 -5 -12 -7 -44 -7 -28 0 -35 2 -35 11 0 9 69 5 79 -4z"/>
<path d="M2092 1165 c2 -14 8 -26 13 -26 6 0 11 12 13 26 2 18 -1 25 -13 25
-12 0 -15 -7 -13 -25z"/>
<path d="M1939 1088 c-7 -24 -26 -59 -44 -78 -17 -19 -49 -62 -71 -94 -53 -80
-98 -111 -184 -127 -60 -10 -82 -10 -156 5 -48 9 -89 15 -91 12 -10 -10 9 -26
32 -26 13 0 36 -5 52 -11 81 -32 277 6 326 63 15 18 27 27 27 20 0 -19 25 -3
43 28 10 16 23 35 30 42 23 24 77 159 77 193 0 33 -30 13 -41 -27z m-56 -156
c-15 -22 -36 -45 -47 -52 -10 -6 1 13 25 44 49 63 65 69 22 8z"/>
<path d="M870 2000 c-8 -5 -11 -12 -8 -16 10 -9 38 3 38 16 0 12 -10 13 -30 0z"/>
<path d="M832 1859 c-66 -52 -164 -174 -204 -253 -17 -33 -46 -85 -65 -115
-22 -35 -33 -62 -31 -80 4 -25 4 -25 23 12 10 20 22 37 27 37 4 0 15 18 24 39
8 22 22 42 30 45 8 3 14 15 14 26 0 18 25 67 41 80 3 3 22 29 41 57 20 29 68
81 107 115 39 34 71 66 71 70 0 18 -31 5 -78 -33z"/>
<path d="M470 1655 c0 -8 7 -15 15 -15 8 0 15 7 15 15 0 8 -7 15 -15 15 -8 0
-15 -7 -15 -15z"/>
<path d="M490 1423 c0 -13 5 -23 10 -23 13 0 13 11 0 30 -8 12 -10 11 -10 -7z"/>
<path d="M2141 1021 c-35 -33 -52 -61 -37 -61 14 0 98 88 89 93 -6 4 -29 -11
-52 -32z"/>
<path d="M2140 964 c-13 -13 -31 -24 -40 -24 -8 0 -26 -16 -39 -35 -13 -19
-27 -35 -31 -35 -5 0 -23 -16 -42 -36 -18 -20 -44 -46 -57 -58 -14 -11 -45
-40 -70 -62 -102 -92 -190 -127 -353 -139 -78 -6 -92 -4 -125 14 -21 12 -76
30 -123 41 -47 10 -110 26 -140 35 -107 30 -180 11 -263 -69 -58 -56 -69 -76
-42 -76 8 0 15 6 15 14 0 19 55 65 104 87 57 25 157 22 258 -8 46 -13 94 -27
108 -29 75 -15 77 -17 35 -25 -27 -5 -50 -3 -71 7 -16 8 -43 16 -60 19 -16 2
-46 9 -67 14 -84 21 -201 -1 -256 -47 -38 -32 -28 -53 10 -23 25 19 66 27 180
36 50 4 86 0 142 -15 70 -19 86 -20 200 -10 68 6 134 13 148 15 13 3 46 8 73
11 80 9 175 66 289 173 57 53 112 103 123 112 10 10 29 28 40 40 12 13 40 38
62 54 23 17 41 33 42 38 0 15 -26 5 -50 -19z"/>
<path d="M2138 897 c-83 -64 -230 -194 -241 -213 -11 -19 -110 -84 -172 -114
-28 -13 -52 -27 -55 -30 -14 -20 -114 -56 -176 -65 -21 -3 -55 -9 -74 -12 -19
-4 -114 -7 -210 -8 -96 -1 -188 -5 -205 -9 -16 -3 -42 -9 -58 -12 -15 -3 -27
-11 -27 -18 0 -9 16 -12 58 -9 31 1 116 5 189 8 72 2 160 9 195 14 35 6 81 13
103 16 143 21 349 119 600 288 112 75 135 95 135 121 0 18 -3 17 -32 -11 -38
-35 -122 -93 -136 -93 -5 0 -17 -9 -28 -21 -18 -20 -65 -49 -80 -49 -10 0 23
30 66 60 74 51 210 168 210 181 0 16 -18 9 -62 -24z"/>
<path d="M2117 741 c-74 -56 -252 -161 -342 -203 -33 -16 -73 -35 -90 -44 -62
-34 -220 -84 -264 -84 -25 0 -73 -5 -106 -11 -101 -18 -106 -18 -240 -18 -11
0 -35 -3 -52 -6 -66 -12 -30 -23 79 -24 61 -1 114 -4 118 -6 3 -2 24 1 46 6
21 5 50 12 64 14 14 3 36 8 50 11 38 10 112 12 103 3 -4 -4 -44 -15 -88 -23
-93 -19 -129 -32 -170 -61 -16 -12 -49 -27 -72 -34 -41 -11 -61 -27 -49 -38 6
-6 55 12 141 53 28 13 82 31 120 40 39 9 117 31 176 50 58 19 115 36 127 39
26 5 170 66 227 97 22 12 60 32 85 45 65 33 126 79 182 137 36 36 30 46 -7 12
-16 -15 -34 -26 -41 -26 -8 0 -14 -4 -14 -8 0 -8 -261 -162 -274 -162 -3 0
-29 -11 -58 -24 -79 -36 -188 -74 -233 -80 l-40 -6 30 13 c17 8 46 17 65 21
32 6 107 42 330 158 106 55 130 70 206 130 57 44 85 78 65 78 -4 0 -38 -22
-74 -49z"/>
<path d="M2105 602 c-66 -48 -294 -172 -316 -172 -6 0 -44 -15 -85 -34 -40
-19 -88 -37 -108 -40 -19 -3 -54 -13 -78 -22 -24 -8 -81 -28 -128 -44 -97 -32
-220 -86 -220 -96 0 -3 8 -3 18 1 9 4 22 8 27 9 6 2 21 8 35 13 14 6 45 14 69
18 24 4 67 18 95 31 28 13 59 24 68 24 10 0 43 11 74 25 32 14 59 23 62 20 3
-3 3 -6 1 -8 -34 -23 -125 -74 -184 -102 -41 -20 -77 -40 -80 -46 -8 -12 38
-12 51 1 5 5 31 16 57 24 26 8 62 26 80 40 92 76 142 107 252 156 203 92 388
211 364 234 -2 3 -27 -12 -54 -32z"/>
<path d="M1540 534 c-84 -21 -262 -27 -324 -10 -29 7 -81 12 -117 9 -76 -4
-207 -32 -216 -46 -7 -12 16 -27 32 -20 34 12 190 29 251 26 206 -9 245 -9
309 3 39 7 85 17 103 22 35 12 37 12 52 12 6 0 10 5 10 10 0 13 -33 11 -100
-6z"/>
<path d="M2015 479 c-122 -70 -161 -90 -295 -150 -41 -19 -83 -41 -93 -50 -10
-9 -32 -19 -48 -23 -30 -6 -42 -36 -14 -36 19 0 66 20 86 37 17 14 97 47 159
65 19 5 42 16 50 23 8 7 44 28 80 46 65 34 200 136 200 151 0 10 14 17 -125
-63z"/>
<path d="M1933 350 c-13 -5 -23 -14 -23 -20 0 -6 12 -4 30 5 45 23 39 33 -7
15z"/>
<path d="M1131 318 c-75 -8 -99 -18 -87 -36 4 -6 20 -7 43 -1 21 5 54 9 74 9
34 0 70 23 52 32 -4 2 -41 1 -82 -4z"/>
<path d="M1785 280 c-3 -5 3 -10 14 -10 11 0 23 5 26 10 3 6 -3 10 -14 10 -11
0 -23 -4 -26 -10z"/>
<path d="M1297 189 c-9 -5 -21 -8 -26 -4 -10 6 -26 -13 -18 -21 10 -11 77 9
77 22 0 16 -8 17 -33 3z"/>
</g>
</svg>
